<?xml version="1.0" encoding="utf-8"?>
<!-- Generator: Adobe Illustrator 26.3.1, SVG Export Plug-In . SVG Version: 6.00 Build 0)  -->
<svg version="1.1" id="Layer_1" xmlns="http://www.w3.org/2000/svg" xmlns:xlink="http://www.w3.org/1999/xlink" x="0px" y="0px"
	 viewBox="0 0 864 864" style="enable-background:new 0 0 864 864;" xml:space="preserve">
<style type="text/css">
	.st0{fill:#FFC627;}
	.st1{stroke:#000000;stroke-miterlimit:10;}
	.st2{fill:#8C1D40;}
</style>
<path class="st0" d="M25.14,412.09l139.1-61.93l-7.96,32.06l241.27-0.39c0,0,2.57-22.95-0.08-51.55
	C170.69,307.24,94.97,218.93,94.97,218.93s181.24,63.43,374.08,42.32c-2.51,62.42-2.42,119.64-2.42,119.64l336.22,2.06
	c0,0,37.32,2.54,35.65,28.55l0.3,0.17c1.76,26.03-35.51,28.69-35.51,28.69l-335.8,3.14c0,0,0.09,57.27,2.79,119.74
	C277.62,542.73,96.8,606.8,96.8,606.8s75.35-88.63,301.78-112.42c2.56-28.64-0.08-51.6-0.08-51.6l-240.98,0.39l8.05,32.06
	L27.51,412.97"/>
<path class="st1" d="M150.41,438.54"/>
<path class="st1" d="M461.17,431.61"/>
<path class="st1" d="M150.67,383.52"/>
<path class="st1" d="M461.44,389.57"/>
<path d="M275.46,295.8"/>
<path class="st2" d="M830.32,410.5c0.1,24.54-127.04,24-127.48,24.26l-242.09,0.78c0,0,0.67,67.44,2.99,121.88
	c-165.3-17.88-351.3,40.88-351.3,40.88s104.79-75.63,299.06-96.36c2.19-24.96-0.21-66.25-0.21-66.25l-262.35,1.9l6.73,27.88
	l-115.4-52.87l-1.69-0.78l-1.18-0.54l-0.07-0.88l118.01-50.64l-6.82,27.47l262.35,1.04c0,0,2.27-40.57,0-65.08
	c-194.34-19.75-299.36-93.71-299.36-93.71s186.18,57.14,351.42,39.05c-2.15,53.49-2.6,119.74-2.6,119.74h242.09
	C702.43,388.29,835.38,387.85,830.32,410.5L830.32,410.5z"/>
</svg>
